<svg width="558" height="89" viewBox="0 0 558 89" fill="none" xmlns="http://www.w3.org/2000/svg">
<path d="M130.395 25.5032H141.723L157.873 68.1828H148.667L144.595 57.0861H127.541L123.451 68.1828H114.263L130.395 25.5032ZM141.915 49.6999L136.068 33.6733L130.22 49.6999H141.915Z" fill="#000091"/>
<path d="M165.321 22.4547H172.978V68.1828H165.321V22.4547Z" fill="#000091"/>
<path d="M181.07 27.0188C181.077 26.0291 181.375 25.0634 181.927 24.2425C182.48 23.4216 183.261 22.7818 184.175 22.4032C185.088 22.0246 186.093 21.9239 187.063 22.1138C188.034 22.3036 188.927 22.7756 189.631 23.4706C190.334 24.1657 190.818 25.053 191.021 26.0217C191.224 26.9903 191.137 27.9974 190.771 28.9169C190.406 29.8365 189.777 30.6277 188.965 31.1917C188.152 31.7557 187.192 32.0675 186.203 32.0881C184.852 32.0927 183.554 31.5624 182.593 30.6127C181.631 29.663 181.083 28.3711 181.07 27.0188ZM182.236 37.4709H189.962V68.1828H182.236V37.4709Z" fill="#000091"/>
<path d="M199.22 37.4535H206.964V39.7704C208.062 38.6433 209.379 37.7528 210.833 37.1537C212.288 36.5546 213.849 36.2594 215.421 36.2864C217.278 36.2251 219.118 36.655 220.756 37.5328C222.393 38.4106 223.771 39.7052 224.749 41.286C225.933 39.6838 227.487 38.3923 229.278 37.5217C231.069 36.6511 233.044 36.2272 235.034 36.2864C241.368 36.2864 246.363 40.6763 246.363 49.3341V68.1828H238.566V49.578C238.566 45.8675 236.565 43.5506 233.085 43.5506C231.719 43.6216 230.4 44.0692 229.273 44.844C228.146 45.6187 227.255 46.6904 226.698 47.9405C226.726 48.3872 226.726 48.8352 226.698 49.2819V68.1828H218.902V49.578C218.902 45.8675 216.901 43.5506 213.42 43.5506C209.94 43.5506 208.06 46.1636 206.912 48.1147V68.1828H199.168L199.22 37.4535Z" fill="#000091"/>
<path d="M253.654 36.0947L259.136 18.5351H267.837L260.772 36.0947H253.654Z" fill="#E1000F"/>
<path d="M338.621 53.8982C338.621 58.3613 336.85 62.6415 333.697 65.7974C330.545 68.9532 326.269 70.7262 321.811 70.7262C317.352 70.7262 313.076 68.9532 309.924 65.7974C306.771 62.6415 305 58.3613 305 53.8982C305 49.4352 306.771 45.1549 309.924 41.9991C313.076 38.8432 317.352 37.0703 321.811 37.0703C326.269 37.0703 330.545 38.8432 333.697 41.9991C336.85 45.1549 338.621 49.4352 338.621 53.8982ZM330.581 53.8982C330.581 51.5697 329.657 49.3365 328.012 47.69C326.367 46.0434 324.137 45.1184 321.811 45.1184C319.484 45.1184 317.254 46.0434 315.609 47.69C313.964 49.3365 313.04 51.5697 313.04 53.8982C313.04 56.2268 313.964 58.4599 315.609 60.1065C317.254 61.753 319.484 62.678 321.811 62.678C324.137 62.678 326.367 61.753 328.012 60.1065C329.657 58.4599 330.581 56.2268 330.581 53.8982Z" fill="#000091"/>
<path d="M345.686 38.5162H353.413V40.955C354.603 39.7644 356.021 38.8266 357.582 38.198C359.143 37.5694 360.815 37.2628 362.497 37.2967C369.127 37.2967 374.435 41.8783 374.435 50.9716V69.2629H366.638V51.2678C366.638 47.1914 364.324 44.6132 360.548 44.6132C359.054 44.6535 357.6 45.1015 356.343 45.909C355.085 46.7165 354.072 47.8527 353.413 49.1948V69.2629H345.686V38.5162Z" fill="#000091"/>
<path d="M385.085 38.5161V35.2934C385.01 33.7062 385.271 32.121 385.852 30.642C386.432 29.163 387.318 27.8235 388.452 26.7115C389.586 25.5994 390.942 24.74 392.431 24.1895C393.92 23.639 395.509 23.41 397.092 23.5173C399.577 23.5037 402.028 24.102 404.227 25.2593L400.938 31.7223C399.86 30.9265 398.554 30.499 397.214 30.5028C396.615 30.485 396.02 30.5952 395.467 30.8261C394.914 31.057 394.417 31.4033 394.009 31.8419C393.6 32.2804 393.29 32.8012 393.098 33.3693C392.907 33.9375 392.839 34.54 392.898 35.1366V38.6207H402.278V45.5888H392.898V69.2629H385.085V45.4842H379.359V38.5161H385.085Z" fill="#000091"/>
<path d="M406.942 28.0988C406.942 26.7636 407.472 25.4831 408.415 24.5389C409.358 23.5948 410.637 23.0644 411.971 23.0644C413.305 23.0644 414.584 23.5948 415.527 24.5389C416.471 25.4831 417 26.7636 417 28.0988C417 29.4341 416.471 30.7146 415.527 31.6587C414.584 32.6029 413.305 33.1333 411.971 33.1333C410.637 33.1333 409.358 32.6029 408.415 31.6587C407.472 30.7146 406.942 29.4341 406.942 28.0988ZM408.108 38.551H415.834V69.2629H408.108V38.551Z" fill="#000091"/>
<path d="M423.37 60.9708C423.37 56.3371 426.972 52.853 433.55 51.7555L442.93 50.1703V49.3864C442.93 46.1462 440.493 44.0732 436.961 44.0732C435.589 44.0612 434.236 44.3889 433.021 45.0272C431.807 45.6654 430.769 46.5944 430 47.7315L424.327 43.3938C425.822 41.4171 427.772 39.8308 430.011 38.7693C432.25 37.7079 434.711 37.2028 437.187 37.2967C446.079 37.2967 450.639 42.6099 450.639 49.3864V69.2629H442.912V66.1969C441.759 67.4615 440.352 68.4688 438.784 69.1532C437.216 69.8375 435.521 70.1835 433.811 70.1687C427.598 70.1687 423.37 66.6324 423.37 60.9708ZM435.307 64.0194C436.824 64.0615 438.326 63.7059 439.663 62.9878C441 62.2697 442.126 61.214 442.93 59.9256V55.6054L435.621 56.8248C432.384 57.3648 431.044 58.7062 431.044 60.605C431.044 62.5038 432.715 64.0194 435.325 64.0194H435.307Z" fill="#000091"/>
<path d="M459.514 38.5162H467.24V40.955C468.431 39.7644 469.849 38.8266 471.41 38.198C472.97 37.5694 474.642 37.2628 476.324 37.2967C482.955 37.2967 488.262 41.8783 488.262 50.9716V69.2629H480.466V51.2678C480.466 47.1914 478.152 44.6132 474.375 44.6132C472.882 44.6535 471.428 45.1015 470.17 45.909C468.913 46.7165 467.9 47.8527 467.24 49.1948V69.2629H459.514V38.5162Z" fill="#000091"/>
<path d="M518.716 59.6295L524.737 64.2633C523.22 66.2502 521.254 67.8495 519.001 68.9304C516.747 70.0112 514.27 70.543 511.773 70.4823C509.55 70.5963 507.328 70.2483 505.246 69.46C503.165 68.6718 501.269 67.4605 499.678 65.9025C498.087 64.3444 496.836 62.4735 496.004 60.4074C495.171 58.3414 494.775 56.1251 494.84 53.8982C494.775 51.6706 495.171 49.4536 496.004 47.3867C496.836 45.3198 498.087 43.4477 499.677 41.8883C501.268 40.329 503.163 39.116 505.245 38.3258C507.327 37.5355 509.549 37.1852 511.773 37.2967C514.274 37.2372 516.754 37.7731 519.007 38.8604C521.261 39.9476 523.225 41.5551 524.737 43.5506L518.716 48.1844C517.921 47.0611 516.858 46.1542 515.625 45.5459C514.391 44.9375 513.025 44.6469 511.651 44.7003C510.458 44.6977 509.278 44.9406 508.183 45.4138C507.088 45.887 506.102 46.5805 505.286 47.4512C504.47 48.3219 503.842 49.3513 503.44 50.4753C503.038 51.5993 502.871 52.7941 502.95 53.9853C502.872 55.1915 503.046 56.4006 503.461 57.5358C503.875 58.671 504.521 59.7074 505.358 60.5791C506.194 61.4507 507.202 62.1386 508.319 62.5989C509.435 63.0593 510.635 63.282 511.842 63.2529C513.197 63.2621 514.534 62.9361 515.733 62.304C516.932 61.6719 517.957 60.7532 518.716 59.6295Z" fill="#000091"/>
<path d="M295.883 59.6295L301.904 64.2633C300.386 66.2502 298.42 67.8495 296.167 68.9304C293.914 70.0112 291.437 70.543 288.939 70.4823C286.717 70.5963 284.495 70.2483 282.413 69.46C280.331 68.6718 278.436 67.4605 276.845 65.9025C275.254 64.3444 274.003 62.4735 273.17 60.4074C272.338 58.3414 271.942 56.1251 272.007 53.8982C271.942 51.6706 272.338 49.4536 273.17 47.3867C274.003 45.3198 275.254 43.4477 276.844 41.8883C278.434 40.329 280.33 39.116 282.412 38.3258C284.493 37.5355 286.716 37.1852 288.939 37.2967C291.441 37.2372 293.92 37.7731 296.174 38.8604C298.428 39.9476 300.392 41.5551 301.904 43.5506L295.883 48.1844C295.088 47.0611 294.025 46.1542 292.791 45.5459C291.558 44.9375 290.192 44.6469 288.817 44.7003C287.625 44.6977 286.444 44.9406 285.35 45.4138C284.255 45.887 283.269 46.5805 282.453 47.4512C281.637 48.3219 281.008 49.3513 280.606 50.4753C280.204 51.5993 280.038 52.7941 280.116 53.9853C280.039 55.1915 280.213 56.4006 280.627 57.5358C281.042 58.671 281.688 59.7074 282.524 60.5791C283.361 61.4507 284.369 62.1386 285.486 62.5989C286.602 63.0593 287.802 63.282 289.009 63.2529C290.364 63.2621 291.701 62.9361 292.9 62.304C294.099 61.6719 295.124 60.7532 295.883 59.6295Z" fill="#000091"/>
<path d="M544.175 70.4823C533.264 70.4823 527.121 62.8522 527.121 53.8982C527.121 44.9442 532.847 37.2967 542.888 37.2967C551.415 37.2967 557.036 43.0977 557.036 51.2329C557.033 52.6923 556.869 54.1469 556.548 55.5706H535.039C535.77 61.3018 539.303 63.6187 544.106 63.6187C545.62 63.6584 547.123 63.3491 548.499 62.7148C549.875 62.0805 551.087 61.1381 552.041 59.9605L557.575 64.3504C555.979 66.3535 553.935 67.9524 551.607 69.0177C549.279 70.083 546.733 70.5847 544.175 70.4823ZM535.283 49.8741H549.414C549.396 49.0201 549.207 48.1782 548.858 47.3986C548.51 46.6189 548.008 45.9174 547.383 45.3357C546.758 44.754 546.023 44.3039 545.22 44.0122C544.418 43.7205 543.566 43.5932 542.714 43.6377C540.917 43.5447 539.152 44.1362 537.773 45.2932C536.395 46.4503 535.505 48.087 535.283 49.8741Z" fill="#000091"/>
<path d="M42.4439 89C24.2761 89 14.9311 79.7499 14.6004 79.3318C14.4212 79.1525 14.3041 78.9203 14.2665 78.6694C14.2289 78.4185 14.2728 78.1622 14.3916 77.9382C19.6123 67.8344 20.6042 59.0895 17.524 51.9472C13.0168 41.5821 1.07896 38.011 0.957145 38.011C0.707378 37.9393 0.487552 37.7886 0.330664 37.5813C0.173775 37.374 0.088289 37.1213 0.0870361 36.8612V31.0777C0.087003 30.7619 0.211119 30.4588 0.432553 30.2339C0.653987 30.0089 0.954951 29.8803 1.27038 29.8757C33.9517 29.2486 44.2537 13.2742 44.3582 13.1174C44.4534 12.961 44.5827 12.8281 44.7364 12.7286C44.89 12.6291 45.0641 12.5655 45.2457 12.5426C45.4568 12.5475 45.6629 12.6081 45.8431 12.7182C46.0234 12.8283 46.1715 12.984 46.2724 13.1697C47.7168 15.8176 51.1798 17.3854 54.8343 19.0403C58.8194 20.7823 62.9263 22.6986 65.1363 26.2349C70.2004 34.3701 65.5018 43.7771 64.9449 44.3171C64.749 44.5072 64.4951 44.626 64.2237 44.6545C63.9523 44.6829 63.6793 44.6193 63.4483 44.4739C63.2198 44.3118 63.0503 44.0795 62.9655 43.8123C62.8807 43.5451 62.8853 43.2575 62.9785 42.9932C63.0319 42.8771 63.096 42.7663 63.1699 42.6622C63.6572 41.7215 67.242 34.1785 63.0829 27.524C61.3427 24.5974 57.4968 22.8902 53.8423 21.2353C50.5897 20.0702 47.6232 18.2231 45.1413 15.8176C41.8 19.9462 30.0536 31.4958 2.27971 32.2623V35.9728C5.30769 37.0354 15.2269 41.1989 19.5079 50.9716C22.8317 58.6017 21.892 67.7647 16.7409 78.2169C19.1946 80.2899 28.7136 87.3102 44.828 86.5263C45.1188 85.2425 45.6726 84.0331 46.4544 82.9746C47.2362 81.9161 48.229 81.0315 49.37 80.377C53.0244 78.4433 58.0711 79.175 64.4925 82.5545L64.7013 82.6939C64.7013 82.6939 67.4682 84.0178 75.3688 77.0671C73.7678 74.4889 69.5565 67.7473 69.104 62.7129C68.8636 61.1795 68.9049 59.615 69.2259 58.0965C69.7479 53.9505 71.697 44.4216 78.0836 44.4216H78.449C78.606 44.4283 78.7601 44.4662 78.9023 44.5331C79.0445 44.6 79.172 44.6946 79.2773 44.8113C79.3826 44.9281 79.4636 45.0647 79.5156 45.2131C79.5676 45.3615 79.5895 45.5189 79.5801 45.6759C79.5735 45.8353 79.5352 45.9918 79.4675 46.1363C79.3998 46.2808 79.304 46.4103 79.1857 46.5173C79.0675 46.6243 78.9291 46.7067 78.7787 46.7596C78.6283 46.8126 78.4689 46.835 78.3098 46.8256C77.705 46.8044 77.1039 46.9276 76.5562 47.1851C76.0085 47.4426 75.5299 47.8269 75.16 48.3063C72.0102 51.8775 71.2271 60.3089 71.3837 61.8593C71.4369 61.9873 71.472 62.1222 71.4881 62.2599C71.7666 66.7021 76.0127 73.5308 77.4049 75.778C78.0662 76.8233 78.1532 76.9452 78.1358 77.3633C78.1342 77.526 78.0977 77.6865 78.0286 77.8338C77.9596 77.9811 77.8596 78.1117 77.7355 78.2169C68.1643 86.927 64.2488 85.3069 63.3091 84.6624C57.7926 81.7706 53.3899 81.0215 50.5359 82.5197C49.5986 83.0958 48.8004 83.8726 48.1986 84.7943C47.5968 85.716 47.2064 86.7596 47.0555 87.8503C47.0203 88.1286 46.8903 88.3863 46.6874 88.5799C46.4845 88.7735 46.2212 88.8911 45.9418 88.9129C44.7932 88.9652 43.5925 89 42.4439 89Z" fill="#E1000F"/>
<path d="M79.2669 46.7037C78.9657 46.7048 78.6751 46.5926 78.4527 46.3893C78.2303 46.186 78.0923 45.9065 78.0662 45.6062C78.0494 45.4491 78.0641 45.2903 78.1096 45.1391C78.155 44.9878 78.2302 44.8472 78.3307 44.7254C78.4313 44.6037 78.5551 44.5033 78.6949 44.4302C78.8348 44.3571 78.9878 44.3127 79.1451 44.2997H79.6497C82.6603 44.0209 82.6603 44.0209 83.1302 41.4776C83.2069 41.2558 83.2311 41.0192 83.2009 40.7864C83.1707 40.5536 83.0869 40.3311 82.9562 40.1362C82.4323 39.7279 81.7726 39.5348 81.1115 39.5962C80.5905 39.6885 80.0543 39.6367 79.5605 39.4464C79.0668 39.2561 78.6343 38.9344 78.3098 38.5161C77.5267 37.1574 78.7448 35.5895 79.1451 35.0321C79.3619 34.7341 79.4983 34.3851 79.541 34.0189C79.5836 33.6527 79.5312 33.2817 79.3887 32.9417C79.2745 32.5599 79.0194 32.236 78.6752 32.0358C78.4827 32.4081 78.3478 32.8075 78.275 33.2204C77.1786 39.1607 73.2806 39.1433 73.0543 39.1259C72.7359 39.1259 72.4305 38.9992 72.2053 38.7738C71.9801 38.5484 71.8536 38.2426 71.8536 37.9239C71.8536 37.6051 71.9801 37.2993 72.2053 37.0739C72.4305 36.8485 72.7359 36.7219 73.0543 36.7219C73.1935 36.7219 75.0904 36.5477 75.7865 32.7849C76.2215 30.468 77.3005 29.806 78.1532 29.6492C78.7867 29.5609 79.4319 29.6792 79.9929 29.9867C80.554 30.2942 81.0012 30.7745 81.2682 31.3564C81.7702 32.1448 82.0192 33.068 81.9819 34.0022C81.9446 34.9364 81.6226 35.8368 81.0593 36.5825C80.8679 36.8612 80.7287 37.0528 80.6417 37.2096H80.8679C81.5742 37.1426 82.2866 37.2259 82.9585 37.4541C83.6303 37.6823 84.2463 38.0501 84.766 38.5336C85.1673 39.0079 85.4455 39.5741 85.576 40.1818C85.7065 40.7895 85.6853 41.4201 85.5143 42.0176C84.7312 46.1811 83.3042 46.4772 79.8586 46.7908H79.3713L79.2669 46.7037Z" fill="#E1000F"/>
<path d="M39.5203 46.7037C39.5203 47.1895 39.3764 47.6644 39.1068 48.0683C38.8372 48.4722 38.454 48.787 38.0056 48.9729C37.5573 49.1589 37.0639 49.2075 36.5879 49.1127C36.112 49.0179 35.6747 48.784 35.3316 48.4405C34.9884 48.097 34.7547 47.6593 34.6601 47.1829C34.5654 46.7064 34.614 46.2125 34.7997 45.7637C34.9854 45.3149 35.2999 44.9313 35.7034 44.6614C36.1069 44.3915 36.5813 44.2474 37.0666 44.2474C37.3888 44.2474 37.7079 44.3109 38.0056 44.4344C38.3033 44.5578 38.5738 44.7387 38.8017 44.9668C39.0295 45.1949 39.2102 45.4657 39.3336 45.7637C39.4569 46.0617 39.5203 46.3811 39.5203 46.7037Z" fill="#000091"/>
<path d="M56.5745 46.7037C56.5745 47.1895 56.4306 47.6644 56.1609 48.0683C55.8913 48.4722 55.5081 48.787 55.0598 48.9729C54.6114 49.1589 54.118 49.2075 53.6421 49.1127C53.1661 49.0179 52.7289 48.784 52.3857 48.4405C52.0426 48.097 51.8089 47.6593 51.7142 47.1829C51.6195 46.7064 51.6681 46.2125 51.8538 45.7637C52.0395 45.3149 52.354 44.9313 52.7576 44.6614C53.1611 44.3915 53.6355 44.2474 54.1208 44.2474C54.7715 44.2474 55.3956 44.5062 55.8558 44.9668C56.316 45.4275 56.5745 46.0522 56.5745 46.7037Z" fill="#000091"/>
<path d="M45.5937 68.6009C37.5887 68.6009 31.1325 63.1832 31.1325 56.5809C31.1325 56.2852 31.2498 56.0017 31.4587 55.7926C31.6676 55.5835 31.9509 55.466 32.2462 55.466C32.5416 55.466 32.8249 55.5835 33.0338 55.7926C33.2426 56.0017 33.36 56.2852 33.36 56.5809C33.36 61.9986 38.8417 66.3885 45.5415 66.3885C52.2413 66.3885 57.723 61.9986 57.723 56.5809C57.723 56.2852 57.8404 56.0017 58.0492 55.7926C58.2581 55.5835 58.5414 55.466 58.8368 55.466C59.1321 55.466 59.4154 55.5835 59.6243 55.7926C59.8332 56.0017 59.9505 56.2852 59.9505 56.5809C60.0549 63.1832 53.5987 68.6009 45.5937 68.6009Z" fill="#000091"/>
<path d="M12.7384 25.9387C12.1119 25.9387 12.0249 25.6949 11.8857 25.4161V25.329L10.0063 20.9043L10.685 20.521C11.0156 20.2946 19.1424 15.6782 21.9616 14.5459L22.6055 16.1486C20.2736 17.0893 14.2176 20.4688 12.1642 21.6011L13.2779 24.1619C17.3984 23.4803 21.4233 22.3107 25.268 20.6778L25.9815 22.2456C23.1724 23.4745 20.2608 24.4538 17.2804 25.1722C15.7978 25.5882 14.2753 25.8451 12.7384 25.9387Z" fill="#000091"/>
<path d="M11.3463 21.8101C10.0413 21.827 8.75281 21.5171 7.59792 20.9087C6.44304 20.3002 5.45838 19.4124 4.73344 18.3261C3.16725 15.6782 4.14177 12.7168 5.2207 10.6612L5.39472 10.4521C6.89923 8.96723 8.92036 8.12422 11.033 8.10041C11.9352 5.50745 13.8066 3.36564 16.2537 2.12527L17.002 3.67567C15.8997 4.24069 14.9257 5.02743 14.1412 5.98665C13.3567 6.94586 12.7784 8.05688 12.4426 9.25014L12.1816 9.96437L11.4507 9.85985C10.5697 9.79142 9.68434 9.91136 8.85325 10.2117C8.02216 10.512 7.26441 10.9859 6.63028 11.6019C6.07011 12.4549 5.73622 13.4367 5.6601 14.4547C5.58398 15.4726 5.76815 16.4932 6.19522 17.4202C6.7699 18.2732 7.54862 18.9687 8.46047 19.4433C9.37231 19.918 10.3883 20.1567 11.4159 20.1378L11.3463 21.8101Z" fill="#000091"/>
<path d="M18.3419 17.7338C16.9367 17.697 15.5715 17.2572 14.4086 16.4667C13.2457 15.6762 12.3338 14.5682 11.7813 13.2742C11.7413 13.169 11.7224 13.0569 11.7257 12.9444C11.729 12.8318 11.7544 12.721 11.8004 12.6183C11.8465 12.5156 11.9123 12.423 11.9941 12.3457C12.0759 12.2684 12.1722 12.2081 12.2773 12.168C12.4896 12.0872 12.7253 12.0941 12.9325 12.1872C13.1397 12.2803 13.3015 12.452 13.3823 12.6645C13.8617 13.7621 14.6795 14.6773 15.716 15.276C16.7525 15.8747 17.9532 16.1256 19.1424 15.9918C19.2567 15.9838 19.3714 15.9984 19.48 16.0347C19.5887 16.0711 19.6891 16.1286 19.7755 16.2038C19.862 16.279 19.9328 16.3705 19.9839 16.4731C20.035 16.5758 20.0654 16.6874 20.0734 16.8018C20.0814 16.9162 20.0669 17.031 20.0305 17.1398C19.9942 17.2485 19.9368 17.349 19.8617 17.4356C19.7865 17.5221 19.6951 17.593 19.5926 17.6442C19.4901 17.6953 19.3785 17.7258 19.2642 17.7338C18.9571 17.753 18.6491 17.753 18.3419 17.7338Z" fill="#000091"/>
<path d="M25.7379 22.2631L25.1984 20.6256C28.5603 19.3622 31.6801 17.5296 34.4215 15.2079L33.2556 12.5077C31.0281 13.2045 24.4327 15.3124 22.153 16.3576L21.4395 14.7898C24.3631 13.4833 33.0642 10.7483 33.4818 10.6438L34.2127 10.4521L35.8659 14.2846H35.9703L36.2836 15.0859C36.736 16.6537 29.1661 21.1133 25.7379 22.2631Z" fill="#000091"/>
<path d="M34.0735 11.9154L32.6117 10.9922L33.1337 10.2083C33.8731 9.33346 34.3605 8.27351 34.5433 7.1423C34.4521 5.81217 33.9113 4.55275 33.0098 3.57124C32.1084 2.58974 30.9001 1.94462 29.5837 1.74202C28.7634 1.7487 27.9555 1.94378 27.2224 2.31224C26.4892 2.68071 25.8504 3.21272 25.355 3.86729L24.9373 4.58152L24.189 4.18086C23.0718 3.61282 21.8508 3.27821 20.6003 3.19735C19.3498 3.11649 18.0959 3.29108 16.9149 3.71051L16.3232 2.10785C18.9345 1.15751 21.8093 1.23849 24.363 2.33431C25.7358 0.909063 27.6072 0.0722897 29.5837 0C31.3594 0.208202 33.0037 1.04023 34.2242 2.34806C35.4446 3.65589 36.162 5.35472 36.2487 7.1423C36.0775 8.62602 35.4721 10.026 34.5085 11.1664L34.0735 11.9154Z" fill="#000091"/>
<path d="M25.0069 15.173C24.8852 15.1813 24.7632 15.1603 24.6512 15.1118C24.5392 15.0633 24.4404 14.9888 24.3631 14.8943C24.2825 14.8163 24.2185 14.7229 24.1748 14.6197C24.1311 14.5164 24.1085 14.4054 24.1085 14.2933C24.1085 14.1812 24.1311 14.0702 24.1748 13.9669C24.2185 13.8637 24.2825 13.7703 24.3631 13.6923C25.2623 12.915 25.8905 11.871 26.1565 10.7119C26.4225 9.55282 26.3124 8.33901 25.8422 7.24682C25.7618 7.04182 25.762 6.81394 25.8426 6.60904C25.9233 6.40414 26.0785 6.23744 26.277 6.14249C26.4755 6.04755 26.7026 6.03141 26.9125 6.09732C27.1225 6.16324 27.2997 6.30631 27.4084 6.49775C28.029 7.92525 28.1797 9.5134 27.8387 11.0323C27.4977 12.5512 26.6827 13.9221 25.5116 14.9466C25.3774 15.0824 25.1975 15.1631 25.0069 15.173Z" fill="#000091"/>
</svg>
